<svg id="Слой_1" data-name="Слой 1" xmlns="http://www.w3.org/2000/svg" viewBox="0 0 150 190"><defs><style>.cls-1{fill-rule:evenodd;}</style></defs><title>Монтажная область 64</title><path class="cls-1" d="M140.85,86.7,138,86.18l1-5.72-5.83,2.66,1.43,8.48-4.28,2.49L130.5,105l-4.23,3.42-4.37-5.07-2.81-.13c-5.55,4.08-5.21,9-5.21,9l-2.11.3a20.85,20.85,0,0,1-5.58-11.89l-4.72.27-5.81-6L94,96.3l2.72,5.34,2.45.36,2,2.29L93,109,86.83,97.14l.78-6.74-3.37.42-3.6-3.14-1.71.14,1.45,4.59-6.2,2L74,88.44l-12.49,4V84.79l4.63-.28,3.14-7.88,7.87.11-1.86-2.89,2.61-3s-2.18-1.77-3.47.23l-2.51-.43c0-7.48,13.83-9.76,16.18-1.09l12.63-2.26,2.37-5.16L119,59.65l1.38,4.53,13.58,1.2,15.51,5.15.24,4.47ZM64,96.53l5.51.39,6.36,3.41,4.24-2.78L85,98l5.32,14.11,8.27.74s-.11,5.67-7.49,7.88L89.61,129l-4.27,4.32c.48,7.85-9,10.3-9,10.3l-5.16-7.15-.3-11.51-4.13-4.12L60.08,122l-5.15-7.43.37-8.92,6.38-4.06ZM46.46,128.27l-1.41,3.33-4.47,1.15-3,6.19-4.44,3.85-2.54,9.28-3.1-.35a75.08,75.08,0,0,1-3.11-24.81l-5.83-2.27-3.71-7.29,5.77-5.84.28-1.86-9-6.74-1-11.58-1.77-.88-.65,4.81-1.9-.45L5,84.83C10,68.11,6.55,63.2,1,64.75L.32,62.19,11.87,59s3.6,7.54,14.93,10.2c-7.52,4.24-3,10.28.25,9.19l.8,2.59,1.54-.1,1.26-8.26,8.48,7.52L35.22,84,38,86.05l-5.4,7.08c-3.14-.79-5.13,2.58-3.53,5.7l-1.34.55C24.25,93.63,18,95.82,18,102l1.86,1.1,3.48-1.49.51,4.88h7.24l9,4.74.13,3.32,9.85,4.1-.12,4.73ZM32.16,67l-3.57-.14L26.1,64.7,29.33,58l6.92.9c-1,5.19,4,6.33,4,6.33l1.21,8-1.7,1ZM126.9,127.9l3,.66.08,2.94,3.75,1,2.21-5.08,6,10.34-1,9.22L135,148.3,129.74,143l-12.83,2.3-1-9.87,5.92-2.31Z"/></svg>